<svg xmlns="http://www.w3.org/2000/svg" xmlns:xlink="http://www.w3.org/1999/xlink" width="480" zoomAndPan="magnify" viewBox="0 0 360 359.999987" height="480" preserveAspectRatio="xMidYMid meet" version="1.2"><defs><clipPath id="d5f188410a"><path d="M 176.808594 0 L 360.902344 184.09375 L 184.996094 360 L 0.902344 175.90625 Z M 176.808594 0 "/></clipPath></defs><g id="4dd166bca6"><g clip-rule="nonzero" clip-path="url(#d5f188410a)"><path style=" stroke:none;fill-rule:nonzero;fill:#734f23;fill-opacity:1;" d="M 176.808594 0 L 360.960938 184.152344 L 185.054688 360.058594 L 0.902344 175.90625 Z M 176.808594 0 "/></g><g style="fill:#ffffff;fill-opacity:1;"><g transform="translate(80.614638, 231.885288)"><path style="stroke:none" d="M 64.296875 1.890625 C 46.234375 1.847656 32.050781 -2.707031 21.75 -11.78125 C 11.457031 -20.863281 6.3125 -33.316406 6.3125 -49.140625 C 6.3125 -64.960938 11.410156 -77.4375 21.609375 -86.5625 C 31.816406 -95.6875 45.816406 -100.25 63.609375 -100.25 C 77.179688 -100.25 88.832031 -97.722656 98.5625 -92.671875 L 98.84375 -68.515625 L 97.71875 -68.515625 C 92.945312 -85.742188 82.046875 -94.359375 65.015625 -94.359375 C 53.960938 -94.359375 45.226562 -90.351562 38.8125 -82.34375 C 32.40625 -74.34375 29.203125 -63.414062 29.203125 -49.5625 C 29.203125 -35.707031 32.265625 -24.707031 38.390625 -16.5625 C 44.523438 -8.425781 52.835938 -4.21875 63.328125 -3.9375 C 74.179688 -3.9375 82.460938 -6.648438 88.171875 -12.078125 C 93.972656 -17.691406 98 -27.332031 100.25 -41 L 101.375 -41 L 102.78125 -16.84375 C 95.195312 -4.300781 82.367188 1.941406 64.296875 1.890625 Z M 64.296875 1.890625 "/></g></g><g style="fill:#ffffff;fill-opacity:1;"><g transform="translate(154.285437, 231.885288)"><path style="stroke:none" d="M 74.28125 -1.40625 C 76.707031 -1.40625 78.578125 -2.015625 79.890625 -3.234375 C 82.046875 -5.378906 83.171875 -7.671875 83.265625 -10.109375 L 83.265625 -45.90625 L 37.765625 -45.90625 L 37.765625 -10.25 C 37.765625 -7.8125 38.65625 -5.726562 40.4375 -4 C 42.21875 -2.269531 44.320312 -1.40625 46.75 -1.40625 L 48.4375 -1.40625 L 48.578125 0 L 5.890625 0 L 5.890625 -1.40625 L 7.71875 -1.40625 C 10.15625 -1.40625 12.238281 -2.269531 13.96875 -4 C 15.695312 -5.726562 16.609375 -7.8125 16.703125 -10.25 L 16.703125 -88.03125 C 16.609375 -90.46875 15.695312 -92.550781 13.96875 -94.28125 C 12.238281 -96.007812 10.15625 -96.875 7.71875 -96.875 L 5.890625 -96.875 L 5.890625 -98.28125 L 48.578125 -98.28125 L 48.4375 -96.875 L 46.75 -96.875 C 44.320312 -96.875 42.21875 -96.007812 40.4375 -94.28125 C 38.65625 -92.550781 37.765625 -90.46875 37.765625 -88.03125 L 37.765625 -51.953125 L 83.265625 -51.953125 L 83.265625 -88.03125 C 83.171875 -90.46875 82.253906 -92.550781 80.515625 -94.28125 C 78.785156 -96.007812 76.707031 -96.875 74.28125 -96.875 L 72.453125 -96.875 L 72.453125 -98.28125 L 115.140625 -98.28125 L 115.140625 -96.875 L 113.3125 -96.875 C 110.875 -96.875 108.765625 -96.007812 106.984375 -94.28125 C 105.210938 -92.550781 104.328125 -90.46875 104.328125 -88.03125 L 104.328125 -10.25 C 104.328125 -7.8125 105.210938 -5.726562 106.984375 -4 C 108.765625 -2.269531 110.875 -1.40625 113.3125 -1.40625 L 115.140625 -1.40625 L 115.140625 0 L 72.453125 0 L 72.453125 -1.40625 Z M 74.28125 -1.40625 "/></g></g></g></svg>