<svg width="1228" height="137" viewBox="0 0 1228 137" fill="none" xmlns="http://www.w3.org/2000/svg">
<path d="M74.1607 1.83565H66.3778V135.133H74.1607V1.83565ZM222.139 48.3245V19.6399C222.139 17.7398 209.384 8.47323 206.573 7.24984C164.093 -11.2311 106.75 9.38428 101.075 58.8404C93.6048 123.81 154.149 150.673 209.644 129.667C212.326 128.652 222.139 122.483 222.139 120.4V93.2775C216.907 92.6267 217.427 101.919 215.501 106.058C210.035 117.823 195.328 126.569 182.47 127.454C115.183 132.009 115.47 13.2626 174.843 9.74865C192.465 8.70747 210.425 19.692 216.673 35.9604C218.078 39.6046 216.933 49.0533 222.139 48.3505V48.3245ZM483.84 46.0078V21.2016C483.84 11.2063 453.672 2.79876 445.472 2.01787C393.153 -2.95377 358.117 24.8458 362.256 78.5968C366.134 128.808 413.065 141.068 456.118 133.103C462.027 132.01 483.84 126.023 483.84 118.839V93.2515H479.181C477.905 116.912 454.843 130.213 432.353 126.647C368.399 116.548 384.485 -8.8885 452.37 12.1954C469.055 17.3753 477.879 29.8435 479.909 46.7887C481.211 49.2095 483.527 47.2312 483.84 45.9818V46.0078ZM541.469 6.49496H480.716C481.081 12.0132 488.187 12.5338 491.388 16.8026C493.809 20.0303 494.434 23.4142 494.824 27.3447C497.531 55.6908 492.716 88.41 494.668 117.225C493.731 123.159 487.432 128.912 481.705 130.37L480.742 135.133H539.153L540.74 132.036C536.654 128.808 525.93 121.233 525.93 115.767V74.6924H571.117V117.329C571.117 122.899 560.315 129.016 556.306 132.062L557.894 135.159H615.523C623.983 135.159 607.558 125.788 606.908 125.112C605.033 123.133 602.795 118.396 602.378 115.663C604.018 87.6031 599.854 56.5759 602.222 28.9064C602.899 20.9935 604.747 17.6616 610.864 12.69C613.337 10.6857 618.569 11.0241 617.866 6.49496H557.113C557.998 11.779 564.896 13.4969 568.019 18.1302C568.774 19.2494 571.143 23.5964 571.143 24.3252V66.9616H525.956V25.887C525.956 24.9499 529.548 17.8439 530.589 16.5424C534.181 12.0914 541.079 12.0913 541.521 6.49496H541.469ZM723.728 6.49496H620.911C620.183 11.0762 625.545 10.6857 627.913 12.69C633.38 17.3233 635.462 22.0086 636.321 29.1407C638.612 48.2464 637.961 86.7961 636.555 106.527C636.139 112.565 634.447 122.795 629.788 126.908C626.143 130.109 619.167 128.443 620.911 135.133H721.386C726.279 125.32 725.368 112.071 726.826 101.034C721.229 100.852 721.802 108.062 719.668 111.732C715.737 118.5 704.31 127.376 696.449 127.376H666.073V74.6664C675.235 74.354 697.933 75.239 704.18 82.4752C707.199 85.9892 705.95 93.8762 711.234 93.2775V46.7887C706.21 46.3983 707.98 53.4523 704.336 57.7472C702.462 59.9597 698.427 62.0941 695.668 63.0572C691.556 64.4628 673.908 67.1958 669.951 66.9876C668.363 66.9095 667.791 66.6493 666.776 65.3998C665.812 64.2545 667.635 63.4476 667.635 63.0832V16.5944C667.635 16.1259 665.656 15.397 666.073 14.2778H701.135C706.575 14.2778 719.199 26.1993 721.438 31.2751C722.843 34.4767 720.787 41.0622 726.826 40.6197L723.728 6.52101V6.49496ZM0.939551 20.4468V46.7887C2.08485 47.2052 2.81368 45.2269 3.28221 45.2269H34.4396C34.8821 45.2269 36.6 47.3874 38.318 46.7627L38.2399 20.4989C33.9711 20.8112 29.1556 16.8287 25.8759 21.2016L34.4396 25.054L35.2205 37.4701H19.6288C17.8327 29.0365 22.5441 32.9931 25.8759 28.1776H12.6529C9.45122 33.3575 20.4877 29.7134 18.093 37.4441H3.41236C0.939553 30.5984 2.24103 22.4511 10.2842 21.1757L0.939551 20.3947V20.4468ZM2.50132 85.5207H35.2205C35.4287 85.5207 34.0231 90.2581 38.318 88.6182C37.9536 84.011 39.9318 78.1544 35.9753 74.6924L34.3615 79.4558L19.6288 79.3516V65.3738C24.0278 66.0245 30.1968 64.4628 34.2053 65.3738C35.8452 65.7382 34.2574 70.1112 38.318 68.4974V54.5715C34.2574 52.9317 35.8191 57.3307 34.2053 57.6951C31.4462 58.3198 4.11515 58.1116 2.78765 57.2786C2.00676 56.7841 3.15206 54.3113 1.72044 54.5715L0.965576 68.5234L3.51648 65.3998H18.093L16.6354 78.7009L3.3603 79.4818L0.965576 74.7444V88.6703L2.50132 85.5728V85.5207ZM1220.63 91.7417L1225.27 84.7658C1215.84 72.8443 1192.21 75.4213 1190.96 92.5227C1189.55 111.837 1215.4 108.557 1215.58 117.511C1215.74 124.981 1208.22 127.194 1201.87 125.138C1195.93 123.212 1194.08 113.815 1188.04 126.387C1197.83 141.406 1225.16 139.948 1226.93 120.4C1228.86 99.2903 1203.79 101.269 1202.2 93.8242C1203.43 83.8809 1214.8 86.2755 1220.58 91.7157L1220.63 91.7417ZM792.29 79.3257H761.133V135.133H789.947L792.29 125.84H772.013V110.327H790.728V101.919L772.013 101.034V88.6182L790.806 87.9415L792.264 79.3257H792.29ZM860.852 114.96L847.603 80.8614L834.354 79.3257C842.813 93.9803 847.03 114.804 855.308 128.99C858.223 133.962 861.581 138.595 866.188 131.905C875.09 118.969 879.515 93.3296 888.886 79.3257L875.611 80.8094L860.878 114.934L860.852 114.96ZM965.178 79.3257H934.021V135.133H962.836L965.178 125.84L945.604 124.383L944.927 110.327H963.643V101.034H944.927V88.6442H965.204V79.3516L965.178 79.3257ZM1055.53 114.986L1023.69 80.8094L1013.49 79.3516V132.816C1016.51 136.434 1023.17 136.278 1025.96 132.816V101.815C1025.96 101.399 1024.53 100.175 1024.37 98.7437L1027.49 97.9368C1028.87 101.815 1032.62 106.448 1035.35 109.52C1039.21 113.841 1054.72 131.905 1057.82 133.675C1060.92 135.445 1063.1 135.445 1066.46 135.133V79.3257H1055.55V114.986H1055.53ZM1136.53 88.6442L1148.32 87.2126L1148.84 81.8505L1146.66 79.3516H1111.59L1113.05 87.9675L1124.06 88.6442V132.816L1126.64 134.899L1136.53 135.133V88.6442ZM0.939551 94.8393V122.743H11.8459C11.2473 119.567 6.66606 122.248 3.93295 119.021C2.44927 117.251 2.29309 115.663 2.52736 113.45H35.2465V116.548L38.37 115.767V102.622C34.0491 100.956 35.4547 105.72 35.2465 105.72H2.52736C1.79853 97.3641 3.75074 99.1081 9.5293 97.9107C12.0021 97.3901 12.2624 98.978 11.872 94.8653H0.965576L0.939551 94.8393Z" fill="#734F23"/>
<path d="M541.469 6.49496C541.027 12.0653 534.103 12.0654 530.537 16.5425C529.495 17.8439 525.903 24.95 525.903 25.8871V66.9617H571.091V24.3253C571.091 23.5964 568.722 19.2495 567.967 18.1302C564.844 13.497 557.946 11.779 557.061 6.495H617.814C618.517 11.0502 613.285 10.6858 610.812 12.6901C604.721 17.6357 602.847 20.9935 602.17 28.9065C599.801 56.5759 603.966 87.6031 602.326 115.663C602.743 118.396 604.981 123.133 606.855 125.112C607.48 125.788 623.931 135.159 615.471 135.159H557.842L556.254 132.062C560.262 129.042 571.065 122.925 571.065 117.329V74.6925H525.877V115.767C525.877 121.259 536.602 128.808 540.688 132.036L539.1 135.133H480.69L481.653 130.37C487.38 128.912 493.679 123.133 494.616 117.225C492.664 88.384 497.505 55.6909 494.772 27.3447C494.408 23.4142 493.783 20.0303 491.336 16.8027C488.135 12.5599 481.028 12.0133 480.664 6.495L541.469 6.49496Z" fill="#734F23"/>
<path d="M282.553 2.27822C200.638 11.9612 210.711 140.391 296.114 135.107C384.615 129.641 375.348 -8.73228 282.553 2.27822ZM311.706 119.645C300.513 130.786 278.31 128.782 269.148 115.507C256.185 96.7395 256.211 38.8758 269.746 20.525C274.432 14.2258 282.553 10.3734 290.388 9.93092C298.327 9.48842 307.958 12.8723 313.164 18.9892C327.688 35.9345 327.818 103.585 311.706 119.645Z" fill="#734F23"/>
<path d="M723.728 6.49496L726.826 40.5937C720.787 41.0362 722.843 34.4508 721.437 31.2491C719.199 26.1734 706.575 14.2518 701.134 14.2518H666.073C665.656 15.3971 667.634 16.0999 667.634 16.5684V63.0572C667.634 63.4477 665.786 64.2285 666.775 65.3738C667.79 66.6232 668.363 66.8836 669.951 66.9617C673.907 67.1699 691.581 64.4628 695.668 63.0312C698.453 62.0681 702.462 59.9336 704.336 57.7211C707.98 53.4523 706.236 46.3723 711.234 46.7627V93.2515C705.924 93.8502 707.199 85.9632 704.18 82.4492C697.933 75.213 675.235 74.328 666.073 74.6403V127.35H696.449C704.31 127.35 715.737 118.474 719.667 111.706C721.802 108.036 721.203 100.826 726.826 101.008C725.368 112.045 726.279 125.294 721.385 135.107H620.911C619.167 128.417 626.143 130.083 629.787 126.882C634.447 122.769 636.139 112.565 636.555 106.501C637.961 86.7702 638.585 48.1943 636.321 29.1147C635.462 21.9826 633.379 17.3233 627.913 12.664C625.544 10.6337 620.182 11.0501 620.911 6.46894H723.728L723.728 6.49496Z" fill="#734F23"/>
<path d="M483.84 46.0078C483.527 47.2312 481.211 49.2355 479.909 46.8147C477.879 29.8955 469.055 17.4014 452.37 12.2215C384.485 -8.83639 368.399 116.6 432.353 126.673C454.843 130.213 477.879 116.938 479.18 93.2775H483.84V118.865C483.84 126.049 462.053 132.036 456.118 133.129C413.065 141.094 366.16 128.834 362.256 78.6229C358.091 24.8718 393.127 -2.92769 445.472 2.04396C453.671 2.82485 483.84 11.2063 483.84 21.2277V46.0339L483.84 46.0078Z" fill="#734F23"/>
<path d="M222.139 48.3245C216.933 49.0273 218.078 39.5785 216.672 35.9344C210.425 19.6659 192.465 8.68139 174.843 9.72257C115.469 13.2366 115.183 131.983 182.47 127.428C195.302 126.569 210.035 117.797 215.501 106.032C217.427 101.893 216.907 92.6007 222.139 93.2515V120.374C222.139 122.457 212.299 128.626 209.644 129.641C154.149 150.647 93.6047 123.784 101.075 58.8144C106.776 9.3582 164.093 -11.2312 206.573 7.22375C209.41 8.44714 222.139 17.7397 222.139 19.6138V48.2984L222.139 48.3245Z" fill="#734F23"/>
<path d="M1055.53 114.986L1055.53 79.3257H1066.43V135.133C1063.05 135.445 1060.84 135.393 1057.79 133.675C1054.75 131.957 1039.18 113.841 1035.33 109.52C1032.59 106.448 1028.85 101.841 1027.47 97.9368L1024.34 98.7437C1024.5 100.175 1025.93 101.399 1025.93 101.815V132.816C1023.15 136.278 1016.48 136.434 1013.46 132.816V79.3517L1023.67 80.8094L1055.5 114.986L1055.53 114.986Z" fill="#734F23"/>
<path d="M1220.63 91.7417C1214.83 86.2755 1203.45 83.9069 1202.26 93.8502C1203.82 101.295 1228.88 99.3164 1226.98 120.426C1225.21 139.948 1197.88 141.432 1188.1 126.413C1194.13 113.841 1195.98 123.238 1201.92 125.164C1208.27 127.246 1215.79 125.008 1215.63 117.537C1215.45 108.557 1189.6 111.863 1191.01 92.5487C1192.26 75.4473 1215.89 72.8444 1225.32 84.7919L1220.68 91.7678L1220.63 91.7417Z" fill="#734F23"/>
<path d="M965.178 79.3257L965.204 88.6442L944.927 88.6182L944.927 101.034H963.643L963.642 110.353L944.927 110.327L945.63 124.383L965.204 125.84L962.861 135.133H934.021V79.3257H965.178Z" fill="#734F23"/>
<path d="M792.29 79.3257L790.832 87.9675L772.013 88.6182V101.034L790.754 101.919L790.728 110.353L772.013 110.327V125.84H792.29L789.947 135.133H761.133V79.3257H792.29Z" fill="#734F23"/>
<path d="M860.852 114.96L875.584 80.8354L888.86 79.3517C879.489 93.3556 875.064 118.995 866.162 131.931C861.555 138.647 858.197 134.014 855.281 129.016C847.004 114.856 842.787 94.0063 834.328 79.3517L847.577 80.8875L860.826 114.986L860.852 114.96Z" fill="#734F23"/>
<path d="M74.1607 1.83565H66.3778V135.133H74.1607V1.83565Z" fill="#734F23"/>
<path d="M1136.53 88.6442V135.133L1126.67 134.899L1124.09 132.816V88.6442L1113.08 87.9675L1111.62 79.3257H1146.66L1148.87 81.8245L1148.35 87.1866L1136.53 88.6442Z" fill="#734F23"/>
<path d="M2.50132 85.5207L0.965528 88.6183V74.6924L3.36025 79.4297L16.6353 78.6489L18.093 65.3738H3.51643L0.965528 68.4713L1.72039 54.5195C3.15201 54.2853 2.00671 56.758 2.7876 57.2265C4.11511 58.0595 31.4461 58.2677 34.2053 57.643C35.8451 57.2786 34.2573 52.9057 38.3179 54.5195V68.4454C34.2573 70.0852 35.8191 65.6862 34.2053 65.3218C30.1967 64.4107 24.0277 65.9725 19.6287 65.3218V79.2996L34.3614 79.4038L35.9753 74.6403C39.9318 78.1022 37.9535 83.9589 38.3179 88.5661C34.0231 90.232 35.4287 85.4686 35.2204 85.4686H2.50127L2.50132 85.5207Z" fill="#734F23"/>
<path d="M0.939551 20.4468L10.2842 21.2277C2.24103 22.4771 0.913524 30.6244 3.41236 37.5222H18.093C20.4877 29.7654 9.45122 33.4096 12.6529 28.1776H25.8759C22.5441 33.0191 17.8327 29.0626 19.6288 37.4701H35.2205L34.4396 25.054L25.8759 21.2016C29.1556 16.8287 33.9711 20.8112 38.2399 20.4989L38.318 46.7627C36.574 47.3874 34.8821 45.2269 34.4396 45.2269H3.28221C2.81368 45.2269 2.08485 47.1792 0.939551 46.7887V20.4468Z" fill="#734F23"/>
<path d="M0.939551 94.8393L11.846 94.8393C12.2364 98.952 11.9761 97.3902 9.50332 97.8848C3.72476 99.0822 1.77254 97.3122 2.50137 105.694H35.2205C35.4288 105.694 34.0492 100.956 38.318 102.596V115.741L35.2205 116.522V113.424H2.50137C2.29313 115.611 2.42328 117.225 3.90697 118.995C6.64007 122.248 11.2473 119.541 11.82 122.717H0.913574V94.8393L0.939551 94.8393Z" fill="#734F23"/>
</svg>
