<svg width="4585" height="518" viewBox="0 0 4585 518" fill="none" xmlns="http://www.w3.org/2000/svg">
<path d="M374.951 221.72C396.167 34.0629 610.56 -44.1603 769.385 25.9642C779.896 30.6062 827.581 65.7663 827.583 72.9769V181.917C808.119 184.584 812.4 148.731 807.145 134.904C783.788 73.1746 716.638 31.4951 650.753 35.4457C428.768 48.7792 427.698 499.355 679.268 482.071C727.344 478.712 782.329 445.527 802.766 400.884C809.968 385.18 808.021 349.92 827.583 352.389V455.304C827.583 463.205 790.893 486.613 780.869 490.465C573.384 570.17 347.02 468.243 374.951 221.72ZM4449.81 349.525C4454.48 284.635 4542.84 274.857 4578.07 320.092L4560.75 346.562L4560.56 346.463C4538.95 325.821 4496.42 316.734 4491.85 354.463C4497.79 382.711 4591.5 375.204 4584.3 455.304C4577.68 529.478 4475.5 535.009 4438.91 478.021C4461.49 430.316 4468.4 465.972 4490.58 473.281C4514.33 481.083 4542.46 472.687 4541.87 444.341C4541.19 410.365 4444.55 422.81 4449.81 349.525ZM3984.33 299.45V511.206C3971.78 512.392 3963.6 512.392 3952.02 505.676C3940.44 498.96 3882.44 430.416 3868.03 414.02C3857.81 402.365 3843.8 384.785 3838.64 370.069L3826.96 373.13C3827.55 378.562 3832.9 383.204 3832.9 384.785V502.416C3822.49 515.552 3797.57 516.145 3786.28 502.416V299.548L3824.43 305.079L3943.45 434.761H3943.55V299.45H3984.33ZM1351.45 296.685C1335.98 92.7309 1466.97 -12.7528 1662.58 6.11169C1693.24 9.07495 1806.03 40.9764 1806.03 78.9027V172.929C1804.86 177.67 1796.2 185.176 1791.34 175.992C1783.74 111.694 1750.75 64.3845 1688.37 44.7298C1434.56 -35.2715 1374.42 440.687 1613.53 479.008C1697.62 492.539 1783.84 442.07 1788.61 352.29H1806.03V449.378C1806.03 476.638 1724.48 499.355 1702.39 503.503C1541.42 533.726 1365.95 487.206 1351.45 296.685ZM1053.49 7.06383C1400.43 -34.7146 1435.07 490.331 1104.19 511.072C784.885 531.121 747.222 43.8053 1053.49 7.06383ZM3320.42 299.45C3285.38 352.586 3268.84 449.872 3235.55 498.959C3218.33 524.342 3205.77 506.762 3194.87 487.898C3163.93 434.07 3148.16 355.055 3116.53 299.45L3166.07 305.278L3215.6 434.662L3215.7 434.564L3270.78 305.079L3320.42 299.45ZM2021.69 23.1C2020.04 44.3345 1994.25 44.3349 1980.82 61.224C1976.92 66.163 1963.49 93.1247 1963.49 96.681V252.536H2132.44V90.7552C2132.44 87.9898 2123.58 71.4954 2120.76 67.2484C2109.08 49.668 2083.29 43.1494 2079.98 23.1H2307.13C2309.76 40.285 2290.19 39.0008 2280.95 46.6058C2258.08 65.4703 2251.17 78.113 2248.64 108.138C2239.78 213.127 2255.35 330.858 2249.22 437.328C2250.78 447.699 2259.15 465.675 2266.16 473.181C2268.59 475.749 2330 511.305 2298.37 511.305H2082.9L2076.97 499.552C2091.95 487.996 2132.34 464.786 2132.34 443.65V281.869H1963.4V437.724C1963.4 458.465 2003.49 487.206 2018.77 499.453L2012.83 511.206H1794.45L1798.05 493.132C1819.46 487.601 1843.01 465.774 1846.52 443.255C1839.22 333.92 1857.22 209.77 1847.1 102.212C1845.64 87.2985 1843.3 74.4584 1834.25 62.2113C1822.28 46.0136 1795.71 44.0383 1794.35 23.1H2021.69ZM274.322 5.42028V511.206H245.223V5.42028H274.322ZM2702.93 23.1V23.1986L2714.51 152.583C2691.93 154.262 2699.62 129.274 2694.36 117.125C2685.99 97.8657 2638.79 52.6315 2618.45 52.6312H2487.36C2485.81 56.8781 2493.2 59.6435 2493.2 61.4213V237.819C2493.2 239.201 2486.39 242.264 2489.99 246.61C2493.79 251.35 2495.93 252.338 2501.86 252.634C2516.66 253.424 2582.64 243.055 2598.02 237.721C2608.33 234.067 2623.42 225.967 2630.42 217.572C2644.05 201.275 2637.43 174.51 2656.21 175.992V352.389C2636.46 354.661 2641.13 324.734 2629.84 311.401C2606.48 283.944 2521.62 280.586 2487.36 281.771V481.774H2600.94C2630.33 481.774 2673.05 448.095 2687.74 422.415C2695.72 408.489 2693.58 381.131 2714.51 381.822C2709.06 423.699 2712.46 473.971 2694.17 511.206H2318.51C2311.99 485.824 2338.08 492.145 2351.7 479.996C2369.12 464.391 2375.45 425.575 2377 402.661C2382.26 327.796 2384.69 181.522 2376.13 109.027C2372.92 81.9648 2365.13 64.1863 2344.69 46.6058C2335.84 39.0012 2315.79 40.4824 2318.51 23.1H2702.93ZM2959.17 299.45L2953.72 332.142L2883.45 334.71V381.822L2953.43 385.18V417.081H2883.45V475.947H2959.26L2950.51 511.206H2842.77V299.45H2959.17ZM3605.66 299.45L3605.76 299.548V334.809H3529.94V381.822H3599.92V417.081H3529.94L3532.48 470.415L3605.66 475.947L3596.9 511.206H3489.17V299.45H3605.66ZM4284.17 299.548L4292.34 309.031L4290.4 329.376L4246.31 334.809V511.206L4209.33 510.318L4199.7 502.416V334.809L4158.53 332.241L4153.08 299.548H4284.17ZM1167.93 70.472C1148.47 47.2619 1112.46 34.4219 1082.78 36.1009C1053.49 37.78 1023.12 52.3976 1005.61 76.2992C954.999 145.93 954.902 365.489 1003.37 436.7C1037.62 487.071 1120.64 494.676 1162.48 452.404C1222.72 391.464 1222.24 134.769 1167.93 70.472ZM0.659729 358.414H41.4371C42.8968 374.019 41.9235 367.995 32.6783 369.97C11.0734 374.513 3.77463 367.896 6.49957 399.6H128.83C129.608 399.6 124.353 381.525 140.508 387.846V437.724L128.83 440.687V428.934H6.49957C5.62376 437.329 6.20748 443.354 11.7545 450.07C21.973 462.317 39.1011 452.144 41.3394 464.194H0.563049V358.315L0.659729 358.414ZM124.937 217.374C130.971 215.991 125.132 199.301 140.313 205.523V258.363C125.132 264.486 131.068 247.894 124.937 246.511C109.95 243.054 86.885 248.98 70.438 246.511V299.548L125.521 299.944L131.554 281.869C146.347 295.006 138.951 317.229 140.313 334.71C124.256 340.932 129.511 322.956 128.732 322.956H6.40192V323.154L0.659729 334.908V282.067L9.61383 300.042L59.2466 297.079L64.6959 246.61H10.1978L0.659729 258.461L3.48199 205.523C8.83442 204.535 4.55309 213.917 7.47223 215.794C12.4355 218.955 114.621 219.745 124.937 217.374ZM93.7945 78.9027C106.057 62.31 124.061 77.4216 140.021 76.2367L140.313 175.892C133.89 178.262 127.468 170.065 125.813 170.065H9.32184C7.57013 170.065 4.84494 177.571 0.563049 175.992V75.8412L35.5005 78.8041C5.42898 83.6436 0.562956 114.558 9.80817 140.534H64.6959C73.6491 111.2 32.3867 125.027 44.357 105.372H93.7945C81.3376 123.644 63.7231 108.632 70.438 140.632H128.732L125.813 93.5209L93.7945 78.9027Z" fill="#26221C"/>
</svg>
