<svg width="171" height="33" viewBox="0 0 171 33" fill="none" xmlns="http://www.w3.org/2000/svg">
<path d="M17.1795 0.30481H15.3535V32.0447H17.1795V0.30481Z" fill="#26221C"/>
<path d="M51.8983 11.3744V4.54421C51.8983 4.09176 48.9058 1.88527 48.2463 1.59396C38.2794 -2.80661 24.8254 2.1022 23.494 13.8784C21.7413 29.3486 35.9465 35.7449 48.9669 30.7431C49.5959 30.5014 51.8983 29.0325 51.8983 28.5366V22.0783C50.6708 21.9234 50.7929 24.136 50.341 25.1215C49.0585 27.923 45.608 30.0055 42.591 30.2163C26.8041 31.3009 26.8713 3.02569 40.8017 2.18897C44.9362 1.94105 49.1501 4.5566 50.6158 8.43034C50.9456 9.29806 50.6769 11.5479 51.8983 11.3806V11.3744Z" fill="#26221C"/>
<path d="M113.299 10.8228V4.9161C113.299 2.53607 106.221 0.534121 104.298 0.348181C92.0222 -0.835635 83.802 5.78382 84.773 18.5827C85.683 30.5386 96.6941 33.4578 106.795 31.5613C108.182 31.3009 113.299 29.8754 113.299 28.1648V22.0721H112.206C111.907 27.7061 106.496 30.8733 101.22 30.0242C86.2143 27.6193 89.9885 -2.24877 105.916 2.7716C109.831 4.005 111.901 6.97384 112.377 11.0087C112.683 11.5851 113.226 11.1141 113.299 10.8166V10.8228Z" fill="#26221C"/>
<path d="M126.82 1.41418H112.566C112.652 2.72816 114.319 2.85211 115.07 3.86858C115.638 4.63713 115.785 5.44288 115.876 6.37878C116.512 13.1284 115.382 20.9193 115.84 27.7804C115.62 29.1936 114.142 30.5633 112.798 30.9104L112.573 32.0447H126.277L126.649 31.3071C125.691 30.5385 123.174 28.7349 123.174 27.4333V17.6529H133.776V27.8052C133.776 29.1316 131.242 30.5881 130.302 31.3133L130.674 32.0508H144.195C146.18 32.0508 142.326 29.8196 142.174 29.6584C141.734 29.1874 141.209 28.0593 141.111 27.4086C141.496 20.7271 140.519 13.3391 141.075 6.75066C141.233 4.86647 141.667 4.07312 143.102 2.88931C143.682 2.41206 144.91 2.49263 144.745 1.41418H130.491C130.698 2.67238 132.317 3.08144 133.05 4.18469C133.227 4.4512 133.783 5.48627 133.783 5.65981V15.8121H123.181V6.03169C123.181 5.80857 124.023 4.11652 124.268 3.80662C125.11 2.74676 126.729 2.74675 126.833 1.41418H126.82Z" fill="#26221C"/>
<path d="M169.583 1.41418H145.46C145.289 2.50503 146.547 2.41206 147.103 2.88931C148.385 3.99255 148.874 5.10819 149.075 6.80644C149.613 11.3558 149.46 20.535 149.13 25.2331C149.033 26.671 148.636 29.1068 147.543 30.0861C146.688 30.8484 145.051 30.4518 145.46 32.0447H169.034C170.182 29.708 169.968 26.5532 170.31 23.9253C168.997 23.8819 169.131 25.5987 168.631 26.4726C167.708 28.0841 165.027 30.1976 163.183 30.1976H156.056V17.6467C158.206 17.5723 163.531 17.7831 164.997 19.5061C165.705 20.3428 165.412 22.2208 166.652 22.0783V11.0087C165.473 10.9157 165.888 12.5954 165.033 13.618C164.594 14.1449 163.647 14.6531 163 14.8824C162.035 15.2171 157.894 15.8679 156.966 15.8183C156.593 15.7997 156.459 15.7377 156.221 15.4402C155.995 15.1675 156.422 14.9754 156.422 14.8886V3.81901C156.422 3.70744 155.958 3.53389 156.056 3.26738H164.282C165.559 3.26738 168.521 6.10606 169.046 7.31466C169.376 8.07702 168.893 9.64512 170.31 9.53976L169.583 1.42039V1.41418Z" fill="#26221C"/>
<path d="M0 4.73639V11.0088C0.268714 11.1079 0.439715 10.6369 0.549643 10.6369H7.85988C7.96371 10.6369 8.36678 11.1513 8.76985 11.0026L8.75153 4.74878C7.74996 4.82316 6.62014 3.87486 5.85064 4.91612L7.85988 5.83343L8.0431 8.78986H4.38492C3.96353 6.78172 5.06892 7.72382 5.85064 6.5772H2.74821C1.99703 7.8106 4.58646 6.94288 4.0246 8.78368H0.580178C4.76837e-07 7.15361 0.305357 5.21364 2.19246 4.90994L0 4.72399V4.73639Z" fill="#26221C"/>
<path d="M0.36618 20.2313H8.04285C8.09171 20.2313 7.76192 21.3593 8.7696 20.9689C8.6841 19.8718 9.14824 18.4773 8.21996 17.6529L7.84131 18.7872L4.38468 18.7624V15.4341C5.41678 15.589 6.86417 15.2171 7.80467 15.4341C8.18942 15.5208 7.81689 16.5621 8.7696 16.1778V12.8619C7.81689 12.4714 8.18331 13.5189 7.80467 13.6057C7.15732 13.7544 0.744823 13.7048 0.433359 13.5065C0.250145 13.3887 0.518859 12.7999 0.182967 12.8619L0.00585938 16.184L0.604361 15.4403H4.02436L3.68236 18.6074L0.567717 18.7934L0.00585938 17.6653V20.9813L0.36618 20.2437V20.2313Z" fill="#26221C"/>
<path d="M0 22.4502V29.0944H2.55889C2.41842 28.3383 1.34357 28.9767 0.702322 28.2081C0.354215 27.7867 0.317571 27.4086 0.372536 26.8818H8.0492V27.6193L8.78206 27.4334V24.3034C7.76827 23.9067 8.09806 25.0409 8.0492 25.0409H0.372536C0.201536 23.0514 0.65957 23.4667 2.01535 23.1816C2.59553 23.0576 2.6566 23.4357 2.565 22.4564H0.00610611L0 22.4502Z" fill="#26221C"/>
<path d="M66.0747 0.407882C46.8555 2.71353 49.219 33.2944 69.2565 32.0362C90.0208 30.7346 87.8466 -2.21386 66.0747 0.407882ZM72.9147 28.3546C70.2886 31.0073 65.0792 30.5301 62.9295 27.3691C59.8882 22.9004 59.8943 9.12225 63.07 4.75267C64.1693 3.25276 66.0747 2.33546 67.9129 2.23009C69.7756 2.12473 72.0353 2.93047 73.2567 4.387C76.6645 8.42188 76.695 24.5304 72.9147 28.3546Z" fill="#26221C"/>
</svg>
