<svg width="1452" height="664" viewBox="0 0 1452 664" fill="none" xmlns="http://www.w3.org/2000/svg">
<path d="M24.7338 442.48C25.3054 387.196 24.1622 331.84 24.2872 276.556C23.144 266.106 30.9678 256.371 40.7564 253.585C83.2691 239.509 126.05 226.023 168.384 211.376C182.156 207.285 186.639 191.888 194.731 181.545C236.065 116.186 296.869 62.5632 369.462 35.055C407.366 21.0687 446.806 10.3333 487.176 7.43961C627.539 -8.458 774.833 -1.59881 905.533 56.5972C980.663 89.7321 1047.77 140.515 1100.2 203.891C1184.85 207.071 1271.52 218.449 1348.36 256.282C1384.18 274.287 1421.92 302.188 1428.1 344.808C1427.64 377.372 1426.67 409.917 1427.42 442.48C1436.08 446.928 1444.64 451.93 1451.39 459.182V552.656C1444.98 558.801 1439.32 568.179 1429.06 566.357C1402.2 566.571 1375.28 567.429 1348.47 566.071C1335.27 565.035 1329.09 550.441 1329.82 538.688C1330.05 495.782 1313.33 452.93 1282.97 422.528C1225.61 363.493 1124.69 357.419 1058.99 405.88C1018.92 434.728 994.22 483.1 992.809 532.418C991.219 541.51 993.952 552.978 985.95 559.748C979.43 568.5 967.819 565.928 958.459 566.678C799.715 566.393 640.936 566.964 482.246 566.393C470.349 567.536 459.292 555.997 460.15 544.172C460.15 504.07 447.967 463.594 421.835 432.745C369.926 368.762 270.414 355.526 200.947 397.449C154.076 425.19 123.174 478.027 122.567 532.704C122.674 544.85 121.03 560.159 108.009 565.374C79.7681 567.982 51.2774 566.41 22.9297 566.339C12.7302 567.982 6.99633 558.73 0.601562 552.638V459.736C6.99633 451.84 15.8918 447.018 24.7338 442.48Z" fill="#734F23"/>
<path d="M1156.38 397.723C1230.06 394.079 1298.51 462.831 1294.04 536.836C1290.42 602.695 1232.22 659.515 1166.81 663.141H1149.88C1087.25 655.532 1032.45 601.659 1028.59 537.729C1023.84 466.654 1086 400.277 1156.38 397.723Z" fill="#734F23"/>
<path d="M295.752 397.651C366.487 400.259 428.702 467.315 423.54 538.622C419.003 602.891 362.968 657.783 299.324 663.177H278.461C208.744 654.549 149.422 586.869 158.657 515.383C167.106 449.756 229.16 394.507 295.752 397.651Z" fill="#734F23"/>
</svg>
